<?xml version="1.0" encoding="utf-8"?>
<!-- Generator: Adobe Illustrator 26.0.1, SVG Export Plug-In . SVG Version: 6.00 Build 0)  -->
<svg version="1.1" id="Logo" xmlns="http://www.w3.org/2000/svg" xmlns:xlink="http://www.w3.org/1999/xlink" x="0px" y="0px"
	 viewBox="0 0 283.5 173.1" style="enable-background:new 0 0 283.5 173.1;" xml:space="preserve">
<g>
	<path d="M116.6,97.4c-0.2-1.6-0.9-2.2-2.1-2.2c-1.1,0-2,0.8-2,1.8c0,1.4,1.2,2,3.8,3.1c5.1,2.2,6.3,4,6.3,7c0,4.4-3,7-8,7
		c-5,0-8.3-2.6-8.3-7.5v-0.5h5.8c0,1.9,1,3.1,2.4,3.1c1.2,0,2.2-1,2.2-2.2c0-1.8-2.5-2.6-4.6-3.5c-3.8-1.5-5.5-3.5-5.5-6.5
		c0-3.9,3.8-6.8,8-6.8c1.5,0,2.9,0.3,4.1,1c2.5,1.3,3.6,3.1,3.7,6.2H116.6z"/>
	<path d="M142.1,99.4c-1-2.5-3.2-4-5.6-4c-3.7,0-6.1,3.1-6.1,6.7c0,3.7,2.5,6.8,6.2,6.8c2.3,0,4.3-1.3,5.5-3.9h6.1
		c-1.4,5.5-6.2,9-11.6,9c-3.2,0-6.2-1.1-8.6-3.4c-2.5-2.4-3.5-5.3-3.5-8.8c0-6.1,5.2-11.6,11.8-11.6c3.2,0,5.7,0.9,8,2.8
		c2.2,1.9,3.5,4,3.9,6.3H142.1z"/>
	<path d="M164.6,113.7v-9.2h-7.5v9.2h-5.9v-23h5.9v8.6h7.5v-8.6h5.9v23H164.6z"/>
	<path d="M185.6,113.7l-5.3-7.4h-0.1v7.4h-5.6v-23h7.5c2.4,0,4.2,0.3,5.4,0.8c2.5,1.1,4.2,3.8,4.2,7.1c0,3.6-2.2,6.6-5.7,7.2
		l6.2,7.8H185.6z M182.4,102.3c2.3,0,3.8-1.1,3.8-3.3c0-2-1.5-3.1-3.7-3.1h-2.2v6.4H182.4z"/>
	<path d="M194.2,102.7c0-7.1,5.1-12.4,12.1-12.4c6.7,0,12.1,5.2,12.1,11.8c0,6.8-5.3,12.1-11.9,12.1
		C200.2,114.1,194.2,109.5,194.2,102.7z M212.6,102.2c0-3.6-2.6-6.8-6.3-6.8c-3.7,0-6.2,3.1-6.2,6.7c0,3.8,2.6,6.8,6.3,6.8
		C210,109,212.6,105.9,212.6,102.2z"/>
	<path d="M221.6,113.7v-23h12.8v5.2h-7.1v3.6h6.9v5.2h-6.9v3.9h7.1v5.2H221.6z"/>
	<path d="M254.6,99.4c-1-2.5-3.2-4-5.6-4c-3.7,0-6.1,3.1-6.1,6.7c0,3.7,2.5,6.8,6.2,6.8c2.3,0,4.3-1.3,5.5-3.9h6.1
		c-1.4,5.5-6.2,9-11.6,9c-3.2,0-6.2-1.1-8.6-3.4c-2.5-2.4-3.5-5.3-3.5-8.8c0-6.1,5.2-11.6,11.8-11.6c3.2,0,5.7,0.9,8,2.8
		c2.2,1.9,3.5,4,3.9,6.3H254.6z"/>
	<path d="M276.6,113.7l-6.3-9.9h-0.1v9.9h-5.9v-23h5.9v10.3h0.1l6.5-10.3h6.1l-7.6,11.4l8.1,11.5H276.6z"/>
	<path d="M107.3,139.5v-17h1.7v17H107.3z"/>
	<path d="M115.9,139.5v-15.4H112v-1.5h9.5v1.5h-3.9v15.4H115.9z"/>
	<path d="M147.8,135.1c-1.7,3-4.6,4.7-7.8,4.7c-4.8,0-8.9-3.8-8.9-8.8c0-5,4-8.8,8.9-8.8c3.1,0,6.4,1.8,7.8,4.6h-1.9
		c-1.3-1.9-3.6-3.1-5.9-3.1c-3.8,0-7.1,3.3-7.1,7.3c0,3.8,3.3,7.2,7.2,7.2c2.3,0,4.4-1.2,5.9-3.2H147.8z"/>
	<path d="M159.8,139.8c-4.6,0-9-3.8-9-8.7c0-4.9,4-8.9,9-8.9c4.9,0,9,3.9,9,8.8C168.8,135.8,164.7,139.8,159.8,139.8z M159.7,123.8
		c-4,0-7.2,3.4-7.2,7.3c0,3.8,3.3,7.2,7.3,7.2c4.1,0,7.3-3.3,7.3-7.2C167.1,127.1,163.8,123.8,159.7,123.8z"/>
	<path d="M184.4,139.5l-10.1-14.9h0v14.9h-1.7v-17h2.3l9.5,14.1h0v-14.1h1.7v17H184.4z"/>
	<path d="M197.6,126.8c0-1.7-1.4-3.1-3-3.1c-1.7,0-3.1,1.3-3.1,3c0,1.4,0.9,2.3,3.3,3c3.7,0.9,4.9,2.8,4.9,5.1c0,2.8-2.3,5-5.1,5
		c-3,0-5.2-2-5.2-5h1.7c0.1,2.2,1.5,3.5,3.5,3.5c1.9,0,3.4-1.5,3.4-3.4c0-1.8-1.2-2.9-3.4-3.5c-2.4-0.7-4.7-1.5-4.7-4.6
		c0-2.7,2.2-4.6,4.8-4.6c2.6,0,4.7,2,4.7,4.6H197.6z"/>
	<path d="M212.9,122.5h1.7v10.8c0,4.3-2.5,6.5-5.8,6.5c-3.2,0-5.8-2.2-5.8-6.6v-10.7h1.7v10.8c0,3.4,1.8,4.9,4.1,4.9
		c1.9,0,4.1-1.2,4.1-4.9V122.5z"/>
	<path d="M219.3,139.5v-17h1.7V138h7v1.5H219.3z"/>
	<path d="M232.1,139.5v-15.4h-3.9v-1.5h9.5v1.5h-3.9v15.4H232.1z"/>
	<path d="M241.6,139.5v-17h1.7v17H241.6z"/>
	<path d="M259.9,139.5l-10.1-14.9h0v14.9h-1.7v-17h2.3l9.5,14.1h0v-14.1h1.7v17H259.9z"/>
	<path d="M271.7,133.2v-1.5h11.5c-0.4,4.6-4.2,8.1-9,8.1c-4.7,0-9.1-3.7-9.1-8.8c0-4.9,4.1-8.8,9.1-8.8c3.8,0,7,2.4,8,4.8h-2
		c-1.2-2-3.6-3.3-6-3.3c-4,0-7.4,3.2-7.4,7.3c0,4.1,3.4,7.2,7.5,7.2c3.1,0,6.1-2.1,6.9-5H271.7z"/>
	<path d="M163.9,37.7c-2.3,0-4.1,1.8-4.1,4.1c0,0.1,0,0.2,0,0.2l-16.1,6.8l-20.7-32.4c0.7-0.7,1.1-1.7,1.1-2.7
		c0-2.3-1.8-4.1-4.1-4.1c-2.3,0-4.1,1.8-4.1,4.1s1.8,4.1,4.1,4.1c0.4,0,0.8-0.1,1.2-0.2l20.5,32.1l-40,16.9l-19.3,0L82.2,8
		c1.7-0.5,3-2.1,3-3.9c0-2.3-1.8-4.1-4.1-4.1C78.8,0,77,1.8,77,4.1C77,6,78.3,7.6,80,8l0.2,58.5l-53.8,0c-0.5-1.7-2.1-3-3.9-3
		c-2.3,0-4.1,1.8-4.1,4.1c0,2.2,1.7,4,3.9,4.1l5.6,26.1l-20.6,8.7c-0.7-0.9-1.9-1.6-3.2-1.6c-2.3,0-4.1,1.8-4.1,4.1
		c0,2.3,1.8,4.1,4.1,4.1c1.3,0,2.4-0.6,3.2-1.5l26.1,11.8l8.9,41.9c-1.3,0.7-2.2,2-2.2,3.6c0,2.3,1.8,4.1,4.1,4.1
		c2.3,0,4.1-1.8,4.1-4.1c0-2.2-1.7-4-3.9-4.1l-8.6-40.3l41.8,18.9c0,0.2-0.1,0.4-0.1,0.6c0,2.3,1.8,4.1,4.1,4.1
		c2.3,0,4.1-1.8,4.1-4.1c0-1.9-1.3-3.5-3-3.9l-0.3-63.1l19.7-8.3l48.4,0c0.5,1.7,2.1,3,3.9,3c2.3,0,4.1-1.8,4.1-4.1
		c0-2.3-1.8-4.1-4.1-4.1c-0.4,0-0.8,0.1-1.2,0.2l-8.4-13.1l15.6-6.6c0.7,1.1,2,1.8,3.4,1.8c2.3,0,4.1-1.8,4.1-4.1
		S166.2,37.7,163.9,37.7z M24.4,71.3c1-0.5,1.8-1.4,2.1-2.5l53.8,0l0,6.9L29.9,97L24.4,71.3z M8.1,109.7c0-0.2,0.1-0.4,0.1-0.6
		c0-0.2,0-0.4,0-0.5l20.2-8.5l4.4,20.9L8.1,109.7z M35.2,122l-4.9-22.8L80.3,78l0.3,62.2c-0.8,0.2-1.5,0.7-2.1,1.3L35.2,122z
		 M82.4,74.8l0-6l14.2,0L82.4,74.8z M151.5,64.9c-0.4,0.5-0.7,1-0.9,1.7l-43.3,0l35.6-15.1L151.5,64.9z"/>
</g>
</svg>
